<?xml version="1.0" encoding="utf-8"?>
<!-- Generator: Adobe Illustrator 24.0.1, SVG Export Plug-In . SVG Version: 6.00 Build 0)  -->
<svg version="1.1" id="Layer_1" xmlns="http://www.w3.org/2000/svg" xmlns:xlink="http://www.w3.org/1999/xlink" x="0px" y="0px"
	 viewBox="0 0 654.4 149.62" style="enable-background:new 0 0 654.4 149.62;" xml:space="preserve">
<style type="text/css">
	.st0{fill:#FFFFFF;}
	.st1{fill:url(#SVGID_1_);}
	.st2{fill:url(#SVGID_2_);}
	.st3{fill:url(#SVGID_3_);}
	.st4{fill:url(#SVGID_4_);}
	.st5{fill:url(#SVGID_5_);}
	.st6{fill:url(#SVGID_6_);}
	.st7{fill:url(#SVGID_7_);}
	.st8{fill:url(#SVGID_8_);}
	.st9{opacity:0.5;fill:#FFFFFF;}
</style>
<g>
	<g>
		<path class="st0" d="M166.47,78.56c0-21.53,17.27-38.69,38.8-38.69c9.17,0,16.95,1.71,24.2,6.18c2.03,1.28,2.45,3.09,1.28,5.33
			l-1.07,1.81c-1.17,2.35-2.98,2.67-5.33,1.39c-8.31-4.48-13.43-4.58-19.08-4.58c-15.14,0-27.29,12.58-27.29,28.46
			c0,14.28,9.59,28.25,28.78,28.25c6.5,0,12.05-1.6,17.06-4.8V87.09h-16.84c-2.45,0-3.84-1.49-3.84-3.94v-1.28
			c0-2.45,1.39-3.84,3.84-3.84h23.34c2.45,0,3.84,1.39,3.84,3.84v21.53c0,2.03-0.85,3.73-3.3,5.65c-8.53,6.29-17.8,7.78-24.62,7.78
			C183.09,116.83,166.47,99.56,166.47,78.56z"/>
		<path class="st0" d="M240.44,89.12c0-15.56,12.15-28.04,28.78-28.04c13.43,0,25.69,7.99,27.18,25.05
			c0.32,2.56-1.17,3.94-3.73,3.94h-41.36c-0.32,9.91,7.89,17.16,19.51,17.16c5.22,0,9.91-1.39,14.5-4.48
			c2.03-1.28,3.73-1.17,5.44,0.53l0.75,0.85c1.71,1.81,1.71,4.05-0.75,6.08c-6.18,5.01-13.33,6.61-20.04,6.61
			C251.95,116.83,240.44,104.36,240.44,89.12z M285.53,81.97c-2.77-9.49-10.23-11.51-16.1-11.51c-6.18,0-13.86,2.45-17.16,11.51
			H285.53z"/>
		<path class="st0" d="M306.63,98.71V70.78h-6.5c-1.39,0-2.13-0.85-2.13-2.24v-4.16c0-1.39,0.75-2.13,2.13-2.13h6.72l1.92-12.26
			c0.32-2.02,1.49-3.09,3.41-3.09h2.24c2.03,0,3.2,1.28,3.2,3.3v12.04h14.6c1.39,0,2.13,0.75,2.13,2.13v4.16
			c0,1.39-0.75,2.24-2.13,2.24h-14.6v28.57c0,5.76,2.77,8,6.18,8c3.3,0,6.29-1.92,6.29-5.76c0-0.43,0-1.17-0.21-2.03
			c-0.21-1.49,0.43-2.45,1.92-2.45h4.9c1.28,0,2.24,0.53,2.45,1.92c0.43,1.81,0.43,3.84,0.43,3.94c0,8-5.76,13.86-15.99,13.86
			C315.05,116.83,306.63,112.46,306.63,98.71z"/>
	</g>
	<g>
		<path class="st0" d="M343.25,79.9c0-20.79,15.03-38.48,40.4-38.48c9.27,0,15.99,2.35,21.75,6.08c2.03,1.39,2.45,3.09,1.28,5.33
			l-0.96,1.71c-1.17,2.13-2.99,2.56-5.33,1.28c-4.69-2.56-10.87-4.26-16.74-4.26c-18.33,0-28.89,13-28.89,28.36
			c0,15.35,10.55,28.35,28.89,28.35c5.86,0,12.05-1.71,16.74-4.26c2.34-1.28,4.16-0.85,5.33,1.28l0.96,1.71
			c1.17,2.24,0.96,3.73-0.64,4.9c-5.86,3.94-12.69,6.5-22.39,6.5C358.28,118.38,343.25,100.69,343.25,79.9z"/>
		<path class="st0" d="M411.04,90.46c0-15.35,10.55-27.82,26.44-27.82c7.14,0,14.07,2.45,19.08,9.59v-4.58
			c0-2.45,1.49-3.84,3.94-3.84h3.2c2.45,0,3.84,1.39,3.84,3.84v45.73c0,2.45-1.39,3.84-3.84,3.84h-3.2c-2.45,0-3.94-1.39-3.94-3.84
			v-4.58c-5.01,7.14-11.94,9.59-19.08,9.59C421.59,118.38,411.04,105.81,411.04,90.46z M456.77,90.46
			c-0.11-10.55-7.25-18.33-17.8-18.33c-10.77,0-16.95,8.42-16.95,18.33c0,10.02,6.18,18.33,16.95,18.33
			C449.52,108.79,456.66,101.01,456.77,90.46z"/>
		<path class="st0" d="M480,113.37V67.64c0-2.45,1.49-3.84,3.94-3.84h3.2c2.45,0,3.84,1.39,3.84,3.84v6.61
			c2.34-7.46,9.17-11.62,17.8-11.62c11.83,0,20.47,7.68,20.47,24.41v26.33c0,2.45-1.49,3.84-3.94,3.84h-3.2
			c-2.45,0-3.84-1.39-3.84-3.84V87.15c0-10.98-5.01-14.92-10.66-14.92c-5.54,0-16.63,3.73-16.63,19.93v21.21
			c0,2.45-1.39,3.84-3.84,3.84h-3.2C481.5,117.21,480,115.83,480,113.37z"/>
		<path class="st0" d="M537.14,90.46c0-15.35,10.55-27.82,26.44-27.82c7.14,0,14.07,2.45,19.08,9.59V43.98
			c0-2.45,1.49-3.84,3.94-3.84h3.2c2.45,0,3.84,1.39,3.84,3.84v69.39c0,2.45-1.39,3.84-3.84,3.84h-3.2c-2.45,0-3.94-1.39-3.94-3.84
			v-4.58c-5.01,7.14-11.94,9.59-19.08,9.59C547.69,118.38,537.14,105.81,537.14,90.46z M582.87,90.46
			c-0.11-10.55-7.25-18.33-17.8-18.33c-10.77,0-16.95,8.42-16.95,18.33c0,10.02,6.18,18.33,16.95,18.33
			C575.62,108.79,582.76,101.01,582.87,90.46z"/>
		<path class="st0" d="M614.2,136.61l8.21-21.43l-20.47-46.9c-1.17-2.67,0.11-4.48,2.98-4.48h4.26c2.24,0,3.62,0.96,4.37,2.99
			l14.82,36.14l13.64-36.03c0.75-2.13,2.35-3.09,4.58-3.09h4.37c2.88,0,4.16,1.71,2.99,4.48l-29.74,69.82
			c-0.85,2.13-2.24,2.99-4.48,2.99h-2.56C614.31,141.09,613.14,139.28,614.2,136.61z"/>
	</g>
</g>
<path class="st0" d="M74.81,0C33.49,0,0,33.49,0,74.81s33.49,74.81,74.81,74.81c41.32,0,74.81-33.49,74.81-74.81S116.13,0,74.81,0z
	 M74.82,102.98c-15.06,0-27.86-12.57-27.86-28.07c0-15.51,12.8-27.9,27.86-27.9c15.06,0,27.97,12.39,27.97,27.9
	C102.78,90.41,89.88,102.98,74.82,102.98z"/>
<g>
	<radialGradient id="SVGID_1_" cx="74.9436" cy="74.5965" r="71.7546" gradientUnits="userSpaceOnUse">
		<stop  offset="0.5041" style="stop-color:#D60080"/>
		<stop  offset="1" style="stop-color:#EB008B"/>
	</radialGradient>
	<path class="st1" d="M95.6,52.16c0,0,9.42-2.35,18.3-11.23s10.79-17.86,10.79-17.86C111.31,9.73,93.8,3.06,76.28,3.04
		c0,0,4.96,9.39,4.96,20.2S76.2,44.26,76.2,44.26C83.66,44.53,90.44,47.47,95.6,52.16z"/>
	<radialGradient id="SVGID_2_" cx="74.6518" cy="75.3417" r="72.3053" gradientUnits="userSpaceOnUse">
		<stop  offset="0.5041" style="stop-color:#98448E"/>
		<stop  offset="1" style="stop-color:#A64B9B"/>
	</radialGradient>
	<path class="st2" d="M105.65,73.54c0,0,8.32,5,20.88,5s20.26-5,20.26-5c-0.03-18.89-7.69-36-20.06-48.39
		c0,0-3.13,10.15-10.77,17.79s-18.43,11.3-18.43,11.3C102.6,59.7,105.31,66.57,105.65,73.54z"/>
	<radialGradient id="SVGID_3_" cx="75.1518" cy="74.9298" r="71.5449" gradientUnits="userSpaceOnUse">
		<stop  offset="0.25" style="stop-color:#5D2684"/>
		<stop  offset="1" style="stop-color:#652D90"/>
	</radialGradient>
	<path class="st3" d="M97.59,95.84c0,0,2.35,9.42,11.23,18.3s17.86,10.79,17.86,10.79c13.34-13.38,20.02-30.89,20.04-48.41
		c0,0-9.39,4.96-20.2,4.96c-10.8,0-21.03-5.04-21.03-5.04C105.21,83.89,102.28,90.67,97.59,95.84z"/>
	<radialGradient id="SVGID_4_" cx="74.9601" cy="75.2108" r="72.2552" gradientUnits="userSpaceOnUse">
		<stop  offset="0.5" style="stop-color:#2D3C8E"/>
		<stop  offset="1" style="stop-color:#293683"/>
	</radialGradient>
	<path class="st4" d="M76.26,105.96c0,0-5,8.32-5,20.88s5,20.26,5,20.26c18.89-0.03,36-7.69,48.39-20.06c0,0-10.15-3.13-17.79-10.77
		s-11.3-18.43-11.3-18.43C90.1,102.91,83.23,105.62,76.26,105.96z"/>
	<radialGradient id="SVGID_5_" cx="74.9431" cy="74.7599" r="72.5035" gradientUnits="userSpaceOnUse">
		<stop  offset="0.5" style="stop-color:#EC1C24"/>
		<stop  offset="1" style="stop-color:#D71921"/>
	</radialGradient>
	<path class="st5" d="M54.04,97.95c0,0-9.42,2.35-18.3,11.23s-10.79,17.86-10.79,17.86c13.38,13.34,30.89,20.02,48.41,20.04
		c0,0-4.96-9.39-4.96-20.2s5.04-21.03,5.04-21.03C65.98,105.57,59.2,102.64,54.04,97.95z"/>
	<radialGradient id="SVGID_6_" cx="74.9693" cy="75.1796" r="72.297" gradientUnits="userSpaceOnUse">
		<stop  offset="0.25" style="stop-color:#DB5C1E"/>
		<stop  offset="1" style="stop-color:#F16522"/>
	</radialGradient>
	<path class="st6" d="M43.97,76.48c0,0-8.32-5-20.88-5s-20.26,5-20.26,5c0.03,18.89,7.69,36,20.06,48.39c0,0,3.13-10.15,10.77-17.79
		s18.43-11.3,18.43-11.3C47.02,90.32,44.31,83.45,43.97,76.48z"/>
	<radialGradient id="SVGID_7_" cx="74.8959" cy="75.1932" r="72.8179" gradientUnits="userSpaceOnUse">
		<stop  offset="0.25" style="stop-color:#EAC917"/>
		<stop  offset="1" style="stop-color:#FFDD15"/>
	</radialGradient>
	<path class="st7" d="M51.96,54.04c0,0-2.35-9.42-11.23-18.3S22.87,24.95,22.87,24.95C9.53,38.33,2.85,55.84,2.84,73.36
		c0,0,9.39-4.96,20.2-4.96s21.03,5.04,21.03,5.04C44.33,65.98,47.27,59.2,51.96,54.04z"/>
	<radialGradient id="SVGID_8_" cx="74.7262" cy="75.4693" r="73.0274" gradientUnits="userSpaceOnUse">
		<stop  offset="0.5069" style="stop-color:#93BA34"/>
		<stop  offset="1" style="stop-color:#A2CC39"/>
	</radialGradient>
	<path class="st8" d="M73.42,43.97c0,0,5-8.32,5-20.88s-5-20.26-5-20.26c-18.89,0.03-36,7.69-48.39,20.06
		c0,0,10.15,3.13,17.79,10.77s11.3,18.43,11.3,18.43C59.59,47.02,66.46,44.31,73.42,43.97z"/>
	<path class="st9" d="M74.81,9.62c24.5,0,46.17,12.03,59.49,30.48C122.26,19.79,100.13,6.16,74.81,6.16S27.36,19.79,15.33,40.11
		C28.64,21.65,50.31,9.62,74.81,9.62z"/>
	<path class="st9" d="M74.81,109.34c-12.86,0-24.08-7.03-30.04-17.45c4.95,11.7,16.53,19.91,30.04,19.91
		c13.5,0,25.09-8.21,30.04-19.91C98.89,102.32,87.67,109.34,74.81,109.34z"/>
</g>
</svg>
